<svg width="800" height="210" viewBox="0 0 800 210" xmlns="http://www.w3.org/2000/svg">
    <defs>
      <style>
        .bg { fill: #0d1117; }
        .border { stroke: #30363d; stroke-width: 1; fill: none; }
        .title { font-family: -apple-system, BlinkMacSystemFont, 'Segoe UI', Helvetica, Arial, sans-serif; font-size: 16px; font-weight: 600; fill: #c9d1d9; }
        .lang-label { font-family: -apple-system, BlinkMacSystemFont, 'Segoe UI', Helvetica, Arial, sans-serif; font-size: 13px; fill: #c9d1d9; }
        .percentage-text { font-family: -apple-system, BlinkMacSystemFont, 'Segoe UI', Helvetica, Arial, sans-serif; font-size: 12px; fill: #8b949e; font-weight: 600; }
        .bar-bg { fill: #161b22; }
        .bar-fill { fill: #58a6ff; }
        .divider { stroke: #30363d; stroke-width: 1; }
      </style>
    </defs>
    
    <!-- Background -->
    <rect class="bg" width="800" height="210" rx="6"/>
    <rect class="border" x="0.5" y="0.5" width="799" height="209" rx="6"/>
    
    <!-- Title -->
    <text x="30" y="35" class="title">📈 Most Used Languages</text>
    <line class="divider" x1="30" y1="45" x2="770" y2="45"/>
    
    
    <text x="40" y="70" class="lang-label">JavaScript</text>
    <rect x="150" y="58" width="600" height="16" rx="8" class="bar-bg"/>
    <rect x="150" y="58" width="300" height="16" rx="8" class="bar-fill"/>
    <text x="760" y="70" class="percentage-text">50.0%</text>
    
    <text x="40" y="100" class="lang-label">Lua</text>
    <rect x="150" y="88" width="600" height="16" rx="8" class="bar-bg"/>
    <rect x="150" y="88" width="100.19999999999999" height="16" rx="8" class="bar-fill"/>
    <text x="760" y="100" class="percentage-text">16.7%</text>
    
    <text x="40" y="130" class="lang-label">GDScript</text>
    <rect x="150" y="118" width="600" height="16" rx="8" class="bar-bg"/>
    <rect x="150" y="118" width="100.19999999999999" height="16" rx="8" class="bar-fill"/>
    <text x="760" y="130" class="percentage-text">16.7%</text>
    
    <text x="40" y="160" class="lang-label">HTML</text>
    <rect x="150" y="148" width="600" height="16" rx="8" class="bar-bg"/>
    <rect x="150" y="148" width="100.19999999999999" height="16" rx="8" class="bar-fill"/>
    <text x="760" y="160" class="percentage-text">16.7%</text>
    
  </svg>