<svg width="800" height="230" viewBox="0 0 800 230" xmlns="http://www.w3.org/2000/svg">
    <defs>
      <style>
        .title { font-family: -apple-system, BlinkMacSystemFont, 'Segoe UI', Helvetica, Arial, sans-serif; font-size: 16px; font-weight: 600; fill: #1a1a1a; }
      </style>
    </defs>
    
    <text x="30" y="35" class="title">Most Used Languages</text>
    <line x1="30" y1="45" x2="770" y2="45" stroke="#666666" stroke-width="0.5"/>
    
    
    <text x="30" y="70" style="font-size: 13px; fill: #1a1a1a; font-family: -apple-system, BlinkMacSystemFont, 'Segoe UI', Helvetica, Arial, sans-serif;">JavaScript</text>
    <rect x="150" y="60" width="500" height="8" rx="4" fill="#666666" opacity="0.2"/>
    <rect x="150" y="60" width="250" height="8" rx="4" fill="#0066cc"/>
    <text x="660" y="70" style="font-size: 12px; fill: #666666; font-family: -apple-system, BlinkMacSystemFont, 'Segoe UI', Helvetica, Arial, sans-serif;">50.0%</text>
    
    <text x="30" y="105" style="font-size: 13px; fill: #1a1a1a; font-family: -apple-system, BlinkMacSystemFont, 'Segoe UI', Helvetica, Arial, sans-serif;">Lua</text>
    <rect x="150" y="95" width="500" height="8" rx="4" fill="#666666" opacity="0.2"/>
    <rect x="150" y="95" width="83.49999999999999" height="8" rx="4" fill="#0066cc"/>
    <text x="660" y="105" style="font-size: 12px; fill: #666666; font-family: -apple-system, BlinkMacSystemFont, 'Segoe UI', Helvetica, Arial, sans-serif;">16.7%</text>
    
    <text x="30" y="140" style="font-size: 13px; fill: #1a1a1a; font-family: -apple-system, BlinkMacSystemFont, 'Segoe UI', Helvetica, Arial, sans-serif;">GDScript</text>
    <rect x="150" y="130" width="500" height="8" rx="4" fill="#666666" opacity="0.2"/>
    <rect x="150" y="130" width="83.49999999999999" height="8" rx="4" fill="#0066cc"/>
    <text x="660" y="140" style="font-size: 12px; fill: #666666; font-family: -apple-system, BlinkMacSystemFont, 'Segoe UI', Helvetica, Arial, sans-serif;">16.7%</text>
    
    <text x="30" y="175" style="font-size: 13px; fill: #1a1a1a; font-family: -apple-system, BlinkMacSystemFont, 'Segoe UI', Helvetica, Arial, sans-serif;">HTML</text>
    <rect x="150" y="165" width="500" height="8" rx="4" fill="#666666" opacity="0.2"/>
    <rect x="150" y="165" width="83.49999999999999" height="8" rx="4" fill="#0066cc"/>
    <text x="660" y="175" style="font-size: 12px; fill: #666666; font-family: -apple-system, BlinkMacSystemFont, 'Segoe UI', Helvetica, Arial, sans-serif;">16.7%</text>
    
  </svg>